<?xml version="1.0" standalone="no"?>
<!DOCTYPE svg PUBLIC "-//W3C//DTD SVG 20010904//EN"
 "http://www.w3.org/TR/2001/REC-SVG-20010904/DTD/svg10.dtd">
<svg version="1.0" xmlns="http://www.w3.org/2000/svg"
 width="512.000000pt" height="512.000000pt" viewBox="0 0 512.000000 512.000000"
 preserveAspectRatio="xMidYMid meet">
<metadata>
Created by potrace 1.14, written by Peter Selinger 2001-2017
</metadata>
<g transform="translate(0.000000,512.000000) scale(0.100000,-0.100000)"
fill="#000000" stroke="none">
<path d="M2330 5039 c-1124 -107 -2038 -955 -2224 -2064 -14 -83 -36 -278 -32
-282 1 -1 220 -3 487 -5 l486 -3 11 100 c39 344 182 638 434 893 245 247 521
388 860 438 148 22 428 15 570 -15 282 -58 552 -194 713 -360 l50 -51 -137
-137 -136 -136 -58 58 c-253 247 -680 350 -1062 254 -435 -109 -758 -466 -837
-923 -23 -138 -27 -129 57 -121 39 4 622 4 1295 0 l1223 -8 8 -26 c4 -14 7
-116 6 -226 0 -168 -4 -217 -23 -305 -62 -292 -172 -492 -378 -690 -206 -199
-414 -309 -707 -372 -138 -30 -522 -33 -659 -5 -595 121 -1078 596 -1195 1176
l-19 94 -489 -2 c-269 -1 -490 -4 -492 -6 -7 -6 40 -266 68 -378 284 -1121
1337 -1908 2495 -1863 772 29 1452 387 1920 1011 563 751 641 1816 192 2645
-481 889 -1436 1404 -2427 1309z m519 -375 c812 -118 1470 -665 1725 -1434 78
-235 106 -413 106 -678 0 -254 -32 -449 -112 -682 -265 -770 -944 -1319 -1758
-1420 -127 -15 -415 -13 -539 6 -234 34 -437 96 -646 199 -233 114 -295 166
-295 246 0 69 67 138 141 146 47 5 42 7 208 -87 169 -96 373 -166 601 -207
131 -23 429 -23 560 0 358 64 637 192 897 411 340 285 547 652 630 1116 23
131 23 429 0 560 -64 358 -192 637 -411 897 -285 339 -653 547 -1116 630 -67
12 -150 17 -280 17 -393 0 -720 -103 -1051 -330 -59 -40 -122 -76 -142 -79
-49 -9 -100 10 -136 50 -62 71 -50 151 32 217 272 216 668 380 1033 427 119
15 436 13 553 -5z"/>
<path d="M1460 2314 c0 -28 52 -188 85 -259 102 -225 298 -430 517 -541 390
-198 919 -150 1246 112 197 158 311 369 357 662 l7 42 -1106 -2 c-819 -2
-1106 -6 -1106 -14z"/>
</g>
</svg>
